
        <svg xmlns="http://www.w3.org/2000/svg" xmlns:xlink="http://www.w3.org/1999/xlink" version="1.1" width="3187.5" height="804.0617900694616" viewBox="0 0 3187.5 804.0617900694616">
			
			<g transform="scale(9.375) translate(10, 10)">
				<defs id="SvgjsDefs2104"/><g id="SvgjsG2105" featureKey="S6ay6y-0" transform="matrix(0.13812084832368296,0,0,0.13812084832368296,-2.704793726663022,-23.47079676441122)" fill="#fff"><path xmlns="http://www.w3.org/2000/svg" d="M723.603,276.895c0.762,1.787,2.079,3.498,2.153,5.261c0.796,18.928-3.24,36.236-15.629,51.402  c-10.624,13.006-24.321,20.833-39.559,26.632c-10.314,3.925-20.932,6.417-32.048,6.685c-5.573,0.134-11.179,1.457-16.691,1.084  c-15.358-1.038-30.798-1.776-45.321-7.961c-20.956-8.925-34.586-24.089-40.955-46.039c-3.794-13.076-3.004-26.122-1.171-39.274  c0.508-3.649,2.392-6.477,6.057-7.301c7.395-1.664,14.808-3.637,22.318-4.293c8.479-0.74,17.129-0.788,25.601-0.008  c9.528,0.877,18.965,2.881,28.397,4.633c17.343,3.221,34.622,6.795,51.988,9.883c13.774,2.45,27.741,1.624,41.635,1.381  C714.559,278.906,718.722,277.699,723.603,276.895z M703.574,629.995c-7.765-0.842-15.544-1.625-23.269-2.759  c-9.156-1.344-17.96-3.991-25.959-8.775c-3.052-1.825-6.462-3.612-8.595-6.3c-4.794-6.043-8.264-12.85-7.629-21.016  c0.104-1.333-0.03-2.698-0.172-4.036c-0.803-7.542-2.338-15.079-2.347-22.619c-0.036-30.043-1.288-60.122,2.434-90.083  c1.734-13.955,2.424-28.043,4.283-41.978c1.827-13.697,6.732-26.261,18.438-34.702c10.72-7.729,21.929-14.776,32.837-22.249  c9.049-6.201,18.597-11.869,26.816-19.042c15.248-13.307,23.269-30.403,23.047-50.984c-0.082-7.645,0.417-15.324-0.136-22.93  c-0.679-9.334-1.704-18.698-3.427-27.889c-3.607-19.236-10.577-37.506-17.164-55.857c-2.423-6.75-4.985-13.471-7.927-20.006  c-2.619-5.819-6.253-6.263-11.915-1.657c3.149,9.136,6.381,18.435,9.558,27.753c4.847,14.215,10.074,28.318,14.332,42.708  c2.716,9.178,4.867,18.714,5.635,28.222c0.787,9.752,0.745,19.639-0.915,29.516c-3.758,22.36-14.563,40.158-32.77,53.498  c-20.313,14.883-43.918,19.57-68.301,21.385c-5.505,0.41-11.12-0.824-16.694-1.126c-12.222-0.663-23.882-3.773-35.065-8.487  c-9.516-4.011-18.906-8.514-26.826-15.287c-12.744-10.898-21.706-24.2-26.317-40.615c-3.658-13.021-4.316-26.158-3.068-39.324  c1.249-13.18,5.804-25.734,9.887-38.287c6.248-19.208,12.768-38.327,19.148-57.492c0.407-1.221,0.609-2.511,0.96-3.998  c-2.23-0.643-4.127-1.19-5.623-1.621c-4.194,1.238-6.462,3.471-7.703,7.35c-1.703,5.323-4.166,10.401-6.245,15.608  c-6.908,17.303-12.741,34.931-16.278,53.27c-1.82,9.436-3.229,18.897-4.238,28.476c-1.371,13.016-1.914,25.958,0.556,38.792  c1.517,7.883,3.929,15.526,8.396,22.541c7.404,11.629,17.446,20.319,28.681,27.867c13.404,9.005,27.041,17.675,40.239,26.97  c9.285,6.54,16.883,14.688,20.382,26.008c3.41,11.03,2.871,22.551,4.584,33.79c0.907,5.952,1.064,12.018,1.549,18.034  c0.862,10.685,2.432,21.373,2.415,32.057c-0.03,18.833,1.132,37.677-0.988,56.526c-1.222,10.868-0.095,21.899-1.323,32.898  c-1.294,11.584-6.471,19.824-16.599,25.097c-9.288,4.835-19.548,6.303-29.692,8.01c-6.82,1.148-13.722,1.795-20.556,2.864  c-3.624,0.567-6.419,2.528-8.289,6.02c3.752,0.668,7.015,1.475,10.326,1.797c10.449,1.015,20.902,2.059,31.378,2.693  c11.624,0.704,23.275,1.329,34.914,1.324c11.413-0.005,22.812,0.567,34.273-0.964c9.261-1.237,18.753-0.15,28.161-1.452  c10.579-1.464,21.302-1.884,32.191-2.777C710.853,632.154,708.266,630.503,703.574,629.995z"/><path xmlns="http://www.w3.org/2000/svg" d="M370.538,209.245c17.577-15.98,39.059-14.556,54.945-0.343c11.797,10.554,19.03,23.858,23.503,38.767  c4.56,15.2,7.087,30.793,6.332,46.675c-1.121,23.564-6.153,46.151-18.669,66.573c-7.139,11.648-16.223,21.142-29.099,26.548  c-13.632,5.724-29.681,2.731-40.871-8.166c1.149-0.238,1.936-0.551,2.719-0.541c11.128,0.14,19.403-5.282,26.277-13.43  c11.317-13.416,17.03-29.412,20.027-46.294c1.899-10.697,3.087-21.721,2.825-32.556c-0.454-18.775-3.598-37.214-12.8-54.036  c-1.859-3.398-3.931-6.744-6.347-9.759C392.35,213.912,383.57,208.363,370.538,209.245z M331.837,618.203  c8.978-1.266,17.016-5.451,23.936-11.639c11.938-10.674,19.811-24.002,24.91-38.891c6.491-18.952,9.362-38.418,7.955-58.635  c-0.937-13.461-3.142-26.477-7.78-39.066c-4.588-12.454-10.957-23.901-21.126-32.738c-14.07-12.228-30.15-15.897-47.657-5.925  c-2.417,1.377-4.635,3.103-7.927,5.332c4.783,0.63,8.191,0.714,11.394,1.568c10.886,2.904,17.622,10.839,23.01,20.054  c11.027,18.862,13.296,39.874,13.929,61.067c0.237,7.92-1.21,15.937-2.353,23.843c-2.318,16.03-7.121,31.212-16.523,44.649  c-7.851,11.22-17.318,19.802-32.415,19.81C309.963,615.913,320.255,619.836,331.837,618.203z M440.621,617.084  c4.469,0.818,9.211,1.548,13.63,0.915c7.749-1.109,14.674-4.526,21.056-9.337c8.371-6.311,14.488-14.349,19.476-23.32  c8.356-15.028,13.141-31.134,15.203-48.278c2.655-22.077,1.113-43.628-6.053-64.642c-5.258-15.419-13.164-29.207-26.732-39.039  c-15.233-11.037-35.09-10.424-50.315,3.398c1.135,0.2,2.008,0.522,2.863,0.478c7.158-0.369,13.142,2.101,18.786,6.517  c8.185,6.405,12.916,15.041,16.921,24.201c5.403,12.359,7.914,25.524,8.742,38.845c1.431,23.024-0.923,45.672-10.58,66.952  c-2.989,6.587-6.755,12.986-11.122,18.746c-7.249,9.563-16.95,15.155-29.683,14.879C427.92,612.619,433.852,615.845,440.621,617.084  z M320.864,539.437c-3.125-5.111-8.723-6.06-12.959-2.198c-7.869,7.175-8.597,28.198-1.244,35.9c4.477,4.69,8.853,4.359,12.76-0.954  c3.784-5.145,5.026-10.969,4.636-16.252C324.082,548.621,322.863,542.708,320.864,539.437z M444.094,538.727  c-3.308-6.629-9.648-6.691-13.521-0.294c-1.736,2.867-3.19,6.133-3.813,9.401c-1.495,7.851-0.998,15.604,4.219,22.198  c3.37,4.259,6.569,4.289,10.516,0.621c5.272-4.898,5.527-11.619,6.959-19.134C447.228,547.804,446.22,542.986,444.094,538.727z   M372.647,338.7c1.011,3.533,3.641,5.793,7.315,6.33c3.715,0.543,6.052-2.001,7.57-4.747c5.143-9.301,5.431-19.023,1.205-28.718  c-1.375-3.153-3.751-5.928-7.692-5.835c-3.903,0.092-6.278,2.926-7.499,6.095c-1.715,4.449-2.641,9.202-3.856,13.647  C370.737,330.261,371.459,334.547,372.647,338.7z M60.14,477.643c12.17-41.638,36.499-70.554,41.007-75.664  c-0.576,0.064-1.155,0.121-1.731,0.187c-13.472,1.541-26.023,5.242-36.817,14.186c-10.738,8.898-18.736,19.808-24.892,32.035  c-15.626,31.032-21.073,63.919-16.631,98.387c3.211,24.917,12.18,47.434,28.481,66.774c9.407,11.161,20.97,18.827,35.662,20.986  c2.703,0.397,5.405,0.796,8.108,1.195c-19.263-24.937-31.752-51.147-37.158-78.144C50.936,531.457,52.272,504.56,60.14,477.643z   M171.945,476.985c-12.307,41.602-14.827,104.427,41.843,169.069c0.598-0.009,1.195-0.009,1.793-0.023  c9.119-0.219,18.229-0.856,27.338-1.519c-23.321-27.564-38.126-56.938-44.006-87.433c-5.089-26.391-3.554-53.653,4.562-81.029  c11.592-39.105,33.56-67.377,40.458-75.603h-30.449C209.912,404.488,184.618,434.145,171.945,476.985z M89.98,557.073  c-4.983-26.392-3.301-53.655,5.001-81.033c11.71-38.618,33.54-66.669,40.803-75.283l-32.139,2.81  c-3.347,3.741-28.399,32.721-40.729,75.003c-11.326,38.836-13.761,96.699,34.592,157.775c11.131,1.638,22.267,3.238,33.42,4.707  C109.274,614.493,95.498,586.299,89.98,557.073z M139.215,397.534c0.019-0.001,0.035-0.011,0.054-0.011h12.565  c-27.155-76.342-19.89-135.356-8.92-171.522c5.827-19.209,13.285-34.173,19.446-44.528c-2.283,0.358-4.565,0.728-6.848,1.085  c-9.929,1.553-18.275,6.36-25.936,12.529c-11.392,9.174-19.787,20.769-26.064,33.825c-9.616,20-13.771,41.396-14.868,63.41  c-0.693,13.901,0.971,27.648,4.184,41.176c5.795,24.402,16.126,46.346,34.938,63.623c0.298,0.273,0.433,0.732,0.65,1.346  l10.728-0.938C139.167,397.527,139.191,397.535,139.215,397.534z M277.281,226.001c8.354-27.542,20.054-46.356,26.477-55.348  c-9.063-0.27-18.13-0.437-27.198-0.571c-5.684,7.561-18.711,27.016-27.76,56.926c-10.853,35.873-18.018,94.523,9.257,170.516h28.126  C259.027,321.178,266.31,262.169,277.281,226.001z M186.026,397.523h26.804h34.301h7.838  c-27.154-76.342-19.889-135.356-8.919-171.522c8.547-28.176,20.606-47.239,26.923-55.973c-2.071-0.031-4.143-0.061-6.214-0.093  c-5.567-0.086-11.143,0.849-16.721,0.958c-13.374,0.261-26.705,0.897-39.936,3.018c-3.117,0.5-6.236,0.984-9.353,1.482  c-6.531,9.693-16.592,27.162-23.989,51.616C165.907,262.88,158.753,321.533,186.026,397.523z M257.031,400.447h-9.246  c-3.54,4.003-28.856,33.664-41.539,76.538c-12.192,41.215-14.777,103.259,40.282,167.264c3.495-0.254,6.989-0.505,10.484-0.73  c8.486-0.546,16.981-1.004,25.452-1.725c3.773-0.321,7.498-1.194,12.147-1.965c-1.582-1.203-2.477-1.927-3.414-2.591  c-13.363-9.468-23.704-21.609-31.36-36.002c-15.007-28.213-20.5-58.286-18.067-90.112c1.367-17.88,5.13-35.013,12.07-51.505  c7.989-18.982,19.191-35.602,36.205-47.598c7.216-5.088,14.809-9.011,22.867-11.298l-24.669-0.276H257.031z M169.172,476.05  c11.596-39.119,33.568-67.388,40.459-75.603h-24.642h-31.093h-13.978c-3.564,3.984-29.191,33.653-42.17,76.546  c-12.299,40.645-15.304,101.548,37.408,164.611c1.359,0.174,2.716,0.362,4.076,0.531c11.062,1.374,22.225,1.943,33.347,2.819  c2.425,0.191,4.869,0.145,7.304,0.213c10.02,0.278,20.048,0.895,30.062,0.915c-24.094-28.016-39.341-57.929-45.333-89.003  C159.522,530.688,161.056,503.426,169.172,476.05z M372.992,175.754c-16.924-1.517-33.828-3.447-50.785-4.365  c-4.968-0.269-9.94-0.471-14.914-0.638c-5.919,8.001-18.469,27.193-27.261,56.256c-10.853,35.875-18.011,94.529,9.269,170.527  l57.183,0.639c-0.957-1.092-1.646-1.86-2.236-2.69c-5.347-7.517-11.169-14.755-15.874-22.657  c-12.464-20.932-14.885-44.407-15.942-68.074c-0.511-11.433,1.003-22.767,2.552-34.09c2.667-19.494,8.574-37.905,18.25-55.015  c7.908-13.984,18.371-25.712,32.26-34.092c2.826-1.705,5.839-3.102,9.004-4.766C373.681,176.214,373.354,175.787,372.992,175.754z   M174.008,226.001c6.954-22.925,16.221-39.785,22.842-49.992c-10.239,1.632-20.479,3.256-30.721,4.867  c-6.281,10.219-14.297,25.745-20.464,46.132c-10.852,35.873-18.018,94.523,9.258,170.516h27.988  C155.754,321.178,163.037,262.169,174.008,226.001z"/></g><g id="SvgjsG2106" featureKey="j5pGhi-0" transform="matrix(2.7552897729374846,0,0,2.7552897729374846,117.17407803413589,0.08061585367904556)" fill="#fff"><path d="M11.924 10.7031 l-1.0938 0.68359 q-1.416015625 -1.89453125 -3.8671875 -1.89453125 q-1.962890625 0 -3.256835938 1.259765625 t-1.2939 3.0664 q0 1.171875 0.595703125 2.211914063 t1.6309 1.6064 t2.3242 0.56641 q2.373046875 0 3.8671875 -1.875 l1.0938 0.71289 q-0.771484375 1.15234375 -2.065429688 1.782226563 t-2.9541 0.62988 q-2.529296875 0 -4.204101563 -1.611328125 t-1.6748 -3.916 q0 -1.5625 0.7861328125 -2.895507813 t2.1484 -2.0801 t3.0615 -0.74707 q1.0546875 0 2.045898438 0.322265625 t1.6846 0.84473 t1.1719 1.333 z M19.61914375 8.203 q2.470703125 0 4.1015625 1.787109375 q1.50390625 1.630859375 1.50390625 3.876953125 q0.01953125 5.546875 0 5.634765625 l-1.4551 0 l0 -2.4316 q-1.142578125 2.12890625 -4.150390625 2.3828125 q-2.4609375 0 -4.018554688 -1.674804688 t-1.5576 -3.9111 q0 -2.2265625 1.474609375 -3.8671875 q1.630859375 -1.796875 4.1015625 -1.796875 z M19.61914375 9.551 q-1.708984375 0 -2.939453125 1.26953125 t-1.2305 3.0664 q0 1.162109375 0.6298828125 2.236328125 t2.1338 1.8164 q3.76953125 0.83984375 5.361328125 -3.427734375 q0.087890625 -1.3671875 -0.29296875 -2.6171875 q-0.2734375 -0.56640625 -0.751953125 -1.07421875 q-1.201171875 -1.26953125 -2.91015625 -1.26953125 z M27.8905875 15.3809 l-0.019531 -1.1426 q-0.029296875 -0.83984375 0.068359375 -1.42578125 q0.21484375 -1.845703125 0.9375 -2.705078125 q0.703125 -0.751953125 1.435546875 -1.162109375 q1.2109375 -0.517578125 2.763671875 -0.48828125 q1.2109375 0 2.241210938 0.6103515625 t1.4697 1.6406 t0.43945 3.2275 l0 5.5078 l-1.3672 0 l0 -5.1074 q0 -1.85546875 -0.15625 -2.48046875 q-0.244140625 -1.064453125 -0.966796875 -1.508789063 t-2.1387 -0.44434 q-1.25 0 -2.2265625 0.72265625 t-0.9082 1.9727 q-0.185546875 0.80078125 -0.185546875 2.919921875 l0 3.9258 l-1.3867 0 l0 -4.0625 z M44.0234125 17.9297 q-1.015625 0.546875 -1.9921875 0.087890625 q-1.19140625 -0.908203125 -1.1328125 -2.587890625 l0 -4.5313 l2.5391 0 l0 -1.1816 l-2.5488 0 l0 -5.1758 l-1.3867 0 l0 11.123 q-0.01953125 1.171875 0.537109375 2.1484375 q0.91796875 1.552734375 2.5 1.640625 q0.83984375 0.029296875 1.9140625 -0.380859375 q-0.166015625 -0.41015625 -0.4296875 -1.142578125 z M47.1288875 4.3260000000000005 q0.46875 0 0.8056640625 0.33203125 t0.33691 0.80078 t-0.33691 0.80566 t-0.80566 0.33691 t-0.80078 -0.33691 t-0.33203 -0.80566 t0.33203 -0.80078 t0.80078 -0.33203 z M46.4452875 8.73 l1.377 0 l0 10.713 l-1.377 0 l0 -10.713 z M50.664025 15.3809 l-0.019531 -1.1426 q-0.029296875 -0.83984375 0.068359375 -1.42578125 q0.21484375 -1.845703125 0.9375 -2.705078125 q0.703125 -0.751953125 1.435546875 -1.162109375 q1.2109375 -0.517578125 2.763671875 -0.48828125 q1.2109375 0 2.241210938 0.6103515625 t1.4697 1.6406 t0.43945 3.2275 l0 5.5078 l-1.3672 0 l0 -5.1074 q0 -1.85546875 -0.15625 -2.48046875 q-0.244140625 -1.064453125 -0.966796875 -1.508789063 t-2.1387 -0.44434 q-1.25 0 -2.2265625 0.72265625 t-0.9082 1.9727 q-0.185546875 0.80078125 -0.185546875 2.919921875 l0 3.9258 l-1.3867 0 l0 -4.0625 z M67.99805 8.203 q2.470703125 0 4.1015625 1.787109375 q1.50390625 1.630859375 1.50390625 3.876953125 q0.01953125 5.546875 0 5.634765625 l-1.4551 0 l0 -2.4316 q-1.142578125 2.12890625 -4.150390625 2.3828125 q-2.4609375 0 -4.018554688 -1.674804688 t-1.5576 -3.9111 q0 -2.2265625 1.474609375 -3.8671875 q1.630859375 -1.796875 4.1015625 -1.796875 z M67.99805 9.551 q-1.708984375 0 -2.939453125 1.26953125 t-1.2305 3.0664 q0 1.162109375 0.6298828125 2.236328125 t2.1338 1.8164 q3.76953125 0.83984375 5.361328125 -3.427734375 q0.087890625 -1.3671875 -0.29296875 -2.6171875 q-0.2734375 -0.56640625 -0.751953125 -1.07421875 q-1.201171875 -1.26953125 -2.91015625 -1.26953125 z"/></g>
			</g>
		</svg>
	