<svg xmlns="http://www.w3.org/2000/svg" height="40" viewBox="0 96 960 960" width="40"><path d="M792 935.333 532.667 676q-30 25.333-69.64 39.667Q423.388 730 378.667 730q-108.441 0-183.554-75.167Q120 579.667 120 472.667T195.167 290.5q75.166-75.167 182.5-75.167 107.333 0 182.166 75.167 74.834 75.167 74.834 182.267 0 43.233-14 82.9-14 39.666-40.667 73l260 258.667-48 47.999ZM378 663.334q79.167 0 134.583-55.834Q568 551.667 568 472.667q0-79.001-55.417-134.834Q457.167 282 378 282q-79.722 0-135.528 55.833t-55.806 134.834q0 79 55.806 134.833Q298.278 663.334 378 663.334Z"/></svg>